<?xml version="1.0" standalone="no"?>
<!DOCTYPE svg PUBLIC "-//W3C//DTD SVG 20010904//EN"
 "http://www.w3.org/TR/2001/REC-SVG-20010904/DTD/svg10.dtd">
<svg version="1.0" xmlns="http://www.w3.org/2000/svg"
 width="663.000000pt" height="663.000000pt" viewBox="0 0 663.000000 663.000000"
 preserveAspectRatio="xMidYMid meet">

<g transform="translate(0.000000,663.000000) scale(0.100000,-0.100000)"
fill="#000000" stroke="none">
<path d="M2326 6618 c-3 -7 -7 -31 -10 -53 -5 -36 -21 -58 -48 -67 -5 -2 -11
-50 -14 -108 -4 -65 -11 -112 -20 -124 -16 -23 -19 -40 -5 -32 5 4 4 -5 -2
-18 -7 -13 -15 -22 -18 -20 -10 6 -20 -26 -12 -38 4 -7 1 -8 -6 -4 -9 6 -12
-1 -9 -25 2 -25 8 -34 20 -33 11 1 14 -4 11 -14 -4 -9 -2 -13 4 -9 5 3 10 0
10 -8 0 -8 -4 -12 -9 -9 -4 3 -12 -5 -17 -18 -6 -14 -10 -17 -10 -7 -1 8 4 20
10 26 6 6 7 13 1 17 -17 10 -44 -105 -40 -176 3 -38 0 -68 -5 -68 -5 0 -7 -14
-5 -30 3 -17 1 -33 -4 -36 -12 -8 -10 -48 4 -62 9 -9 9 -12 -1 -12 -8 0 -11
-6 -7 -16 3 -8 2 -12 -4 -9 -6 4 -11 -13 -12 -42 -1 -26 -2 -58 -2 -70 -1 -11
-4 -25 -8 -29 -5 -4 -8 -14 -8 -23 0 -13 2 -13 9 -3 7 11 9 10 14 -3 4 -9 3
-13 -3 -10 -6 3 -10 1 -10 -5 0 -6 -5 -8 -11 -4 -8 4 -9 0 -4 -15 4 -12 2 -21
-4 -21 -11 0 -13 -36 -15 -210 -1 -127 15 -240 33 -240 3 0 7 -35 9 -77 2 -43
8 -83 14 -90 7 -9 7 -18 -2 -28 -10 -12 -12 -61 -7 -217 6 -186 14 -234 34
-214 5 4 8 63 8 131 0 68 3 127 7 130 4 4 2 17 -4 29 -7 11 -13 50 -15 86 -3
59 -2 63 12 46 8 -10 12 -23 9 -27 -3 -5 0 -9 5 -9 14 0 14 -36 0 -62 -14 -26
6 -51 22 -28 9 12 9 11 4 -5 -14 -40 -26 -319 -15 -368 12 -60 13 -87 1 -87
-6 0 -13 21 -16 48 -12 91 -17 107 -26 90 -5 -9 -4 -52 1 -99 6 -46 10 -87 10
-91 0 -5 5 -8 11 -8 7 0 9 9 6 22 -5 19 -5 20 10 6 17 -18 10 -38 -13 -38 -21
0 -17 -28 5 -35 26 -8 39 -25 45 -58 2 -15 8 -37 11 -48 6 -18 4 -20 -15 -14
-17 5 -21 4 -14 -6 4 -7 8 -28 9 -46 1 -28 -3 -33 -22 -33 -13 0 -23 4 -23 8
0 5 -16 17 -35 28 -20 10 -33 24 -30 31 2 7 0 13 -4 13 -5 0 -12 39 -15 88
-15 202 -46 352 -43 205 1 -39 -1 -69 -5 -66 -8 4 -14 -90 -8 -112 5 -18 0
-190 -6 -209 -6 -19 -7 -19 -17 0 -6 11 -13 170 -16 425 -3 224 -9 411 -13
415 -5 4 -8 -22 -8 -57 1 -109 -8 -300 -13 -306 -3 -3 -2 -16 4 -30 6 -17 6
-22 -2 -17 -8 5 -10 -6 -7 -35 2 -22 0 -41 -4 -41 -12 0 -9 -112 7 -255 8 -71
19 -256 25 -410 5 -154 14 -318 20 -365 11 -87 15 -111 45 -260 16 -80 16 -92
1 -195 -30 -198 -26 -182 -42 -161 -7 10 -11 23 -8 27 3 5 0 9 -5 9 -6 0 -11
9 -11 19 0 10 -8 29 -19 42 -18 22 -18 23 15 67 19 24 34 48 34 53 0 6 -15 9
-32 8 -70 -5 -82 0 -113 46 -28 41 -55 59 -55 35 0 -5 -11 -12 -24 -16 -13 -3
-39 -22 -57 -41 -21 -22 -27 -34 -16 -30 11 4 24 -1 34 -13 21 -24 25 -50 8
-50 -21 0 -23 -23 -3 -44 19 -21 16 -38 -4 -18 -7 7 -28 12 -48 12 -41 0 -61
-17 -78 -67 -14 -41 -177 -203 -204 -203 -34 0 -159 -69 -203 -111 -27 -27
-55 -49 -61 -49 -6 0 -30 -22 -53 -50 -23 -27 -48 -50 -55 -50 -8 0 -31 -18
-52 -40 -22 -23 -61 -55 -89 -72 -27 -17 -52 -34 -55 -38 -8 -13 -160 -70
-185 -70 -27 0 -77 -17 -85 -30 -3 -4 -63 -22 -135 -40 -72 -17 -148 -36 -170
-42 -22 -5 -55 -12 -73 -15 -17 -3 -32 -8 -32 -12 0 -4 -29 -13 -65 -20 -36
-6 -76 -16 -90 -21 l-25 -10 0 -875 0 -875 195 0 195 0 0 43 c0 61 10 87 31
87 22 0 49 37 49 68 0 29 -25 78 -45 90 -14 7 -14 13 0 51 8 24 15 52 15 62 0
11 3 19 7 19 4 0 53 -45 108 -100 99 -97 103 -100 148 -100 47 0 99 -23 147
-66 34 -30 84 -54 113 -54 35 0 79 -24 66 -37 -15 -15 12 -57 39 -61 12 -2 22
1 22 6 0 9 -22 59 -41 94 -12 23 -12 38 1 38 6 0 10 -8 10 -19 0 -10 6 -24 13
-30 8 -6 19 -29 26 -51 l12 -40 2759 0 2760 0 0 784 c0 688 -2 785 -15 790 -8
3 -15 10 -15 16 0 5 7 10 15 10 29 0 14 19 -27 35 -46 17 -155 108 -119 98 12
-3 21 -9 21 -14 0 -5 7 -6 15 -3 9 4 18 -2 24 -17 5 -13 10 -20 10 -15 1 5 10
-1 21 -14 20 -23 20 -23 20 -2 0 11 -7 28 -16 36 -23 23 -1 20 26 -4 13 -11
18 -20 12 -20 -20 0 -13 -27 8 -33 20 -5 21 -2 18 86 l-3 92 -30 9 c-57 17
-136 59 -146 77 -5 10 -22 22 -37 25 -40 10 -124 54 -145 75 -9 10 -42 26 -72
34 -35 11 -55 22 -55 32 0 11 -7 13 -30 8 -24 -5 -31 -3 -36 12 -10 33 -21 48
-36 51 -12 2 -14 -4 -11 -25 4 -25 3 -26 -9 -11 -8 9 -54 35 -103 59 -49 23
-95 47 -101 54 -7 7 -25 16 -41 22 -15 6 -50 18 -78 28 -59 21 -103 27 -111
14 -3 -5 -14 -9 -25 -9 -10 0 -19 -4 -19 -10 0 -5 -7 -10 -15 -10 -30 0 -14
19 30 36 l45 17 -25 23 c-28 26 -68 40 -84 29 -6 -3 -11 -2 -11 2 0 10 -62 49
-72 45 -4 -1 -5 4 -3 11 3 6 -13 23 -36 37 -40 25 -82 94 -93 154 -3 15 -10
33 -15 40 -6 7 -7 17 -3 21 4 5 -1 5 -10 2 -10 -4 -18 -3 -18 2 0 9 -45 31
-64 31 -8 0 -13 -6 -13 -12 3 -25 -34 -128 -45 -128 -6 0 -36 26 -66 58 -88
91 -132 118 -132 79 0 -8 3 -8 9 2 6 9 11 10 15 2 4 -6 4 -11 0 -11 -4 0 5
-13 21 -30 16 -17 25 -30 21 -30 -5 0 -3 -7 4 -15 7 -9 11 -18 8 -20 -5 -6
-37 24 -57 53 -11 16 -18 19 -28 10 -11 -8 -12 -7 -7 6 3 9 1 16 -6 16 -15 0
-63 47 -79 78 -7 13 -15 21 -18 18 -3 -3 0 -12 7 -21 7 -8 9 -15 6 -15 -4 0
-2 -9 4 -20 6 -11 16 -17 22 -14 6 4 8 3 5 -3 -3 -5 2 -16 11 -24 9 -8 33 -36
52 -62 19 -25 41 -47 47 -47 13 0 42 -49 48 -81 4 -17 -6 -24 -28 -20 -5 1 -5
-4 -1 -10 3 -6 -6 -22 -21 -35 -32 -28 -45 -30 -45 -9 0 24 -27 17 -34 -8 -4
-18 -16 -26 -57 -35 -28 -7 -73 -12 -100 -12 -64 0 -83 26 -86 119 -2 61 4 85
28 133 5 10 9 27 9 37 0 11 4 22 9 25 4 3 18 43 31 88 24 89 49 148 63 148 5
0 6 -10 2 -22 -3 -13 -9 -34 -11 -48 -3 -19 -1 -17 8 7 7 18 21 40 31 50 16
16 17 16 17 -15 0 -23 5 -32 16 -32 10 0 14 -6 11 -14 -3 -8 1 -20 9 -26 8 -7
14 -9 14 -6 0 4 10 -2 22 -14 39 -36 28 -14 -17 35 -25 26 -44 53 -43 59 1 6
-5 22 -14 36 -9 14 -18 34 -20 45 -3 19 -25 32 -60 34 -15 1 -16 -3 -8 -25 13
-33 13 -34 -5 -34 -8 0 -17 11 -21 25 -7 30 -15 31 -31 5 -9 -14 -10 -27 -3
-45 8 -20 6 -30 -6 -42 -8 -9 -14 -24 -11 -33 3 -10 -6 -29 -19 -43 -13 -15
-24 -31 -24 -37 0 -7 -19 3 -42 22 -29 23 -40 27 -35 15 4 -11 3 -16 -4 -12
-5 4 -7 15 -4 24 5 18 -29 71 -46 71 -14 0 -91 51 -112 74 -19 21 -19 24 12
171 17 82 29 286 15 273 -4 -4 -7 -43 -7 -85 0 -43 -2 -65 -4 -50 -6 40 -27
28 -35 -19 -3 -21 -4 4 -2 56 3 52 9 244 13 425 6 194 16 380 25 450 9 66 16
138 15 160 0 22 2 78 7 125 12 133 6 355 -11 405 -5 14 -4 16 3 7 8 -11 10
-11 15 1 3 8 0 20 -6 26 -8 8 -8 11 2 11 11 0 12 13 8 54 -3 33 -1 58 6 65 8
8 8 11 0 11 -8 0 -10 14 -7 39 2 22 0 42 -6 46 -5 3 -10 11 -10 16 0 6 4 8 9
5 4 -3 7 11 4 32 -2 25 0 32 6 23 7 -10 9 -8 8 10 -1 13 2 37 6 52 6 21 5 27
-4 21 -9 -5 -10 -1 -5 17 4 13 9 35 11 49 3 16 2 17 -1 5 -10 -33 -28 -44 -20
-12 4 16 2 27 -4 27 -19 0 -11 55 10 68 11 7 20 17 20 23 0 6 -8 3 -17 -7 -17
-17 -18 -15 -23 32 -3 27 -11 59 -18 71 -7 12 -11 34 -11 50 1 16 3 21 6 11 6
-22 33 -12 33 13 0 10 -3 19 -8 19 -4 0 -5 37 -3 81 2 61 0 84 -10 90 -11 7
-9 10 9 15 36 10 25 20 -20 17 -24 -1 -32 1 -18 4 40 8 48 23 13 23 -18 0 -34
4 -37 8 -3 5 15 8 39 7 46 -2 57 7 28 23 -9 5 -14 16 -11 23 9 25 7 34 -8 31
-8 -2 -14 2 -14 8 0 6 5 8 11 4 9 -5 10 1 5 20 -4 15 -3 25 1 23 10 -6 10 64
0 80 -4 7 -6 47 -5 90 2 43 -1 89 -6 102 -5 15 -5 21 2 17 5 -3 12 9 16 27 5
23 2 35 -10 44 -9 6 -14 22 -12 35 2 13 -3 28 -11 34 -11 8 -11 15 -2 33 10
18 10 26 -1 39 -11 13 -11 14 1 8 10 -7 12 -3 7 13 -3 11 -9 30 -12 41 -5 20
-20 25 -48 14 -18 -7 -22 -25 -5 -22 17 4 22 -33 28 -190 1 -30 5 -41 13 -36
7 4 8 3 4 -5 -8 -13 -12 -34 -20 -135 -4 -38 -9 -73 -13 -79 -3 -6 -1 -7 5 -3
7 4 11 -3 9 -23 -1 -16 -4 -28 -6 -26 -6 7 -29 -20 -24 -28 2 -4 -1 -32 -7
-62 -8 -38 -8 -60 -1 -74 8 -14 8 -20 -1 -23 -8 -3 -6 -14 7 -36 11 -17 22
-27 25 -21 4 5 7 -4 7 -21 0 -16 -5 -30 -10 -30 -5 0 -7 -10 -4 -21 5 -17 3
-19 -6 -10 -8 8 -9 16 -1 29 9 13 7 25 -10 54 -20 36 -43 44 -62 24 -22 -26
-3 -139 22 -129 16 6 19 -13 4 -22 -5 -3 -10 -23 -10 -43 0 -24 -3 -32 -9 -24
-6 11 -10 10 -15 -4 -4 -9 -2 -22 4 -28 5 -5 10 -17 10 -26 0 -12 -2 -12 -9
-2 -7 11 -9 11 -14 -1 -3 -8 -4 -23 -1 -34 3 -12 -5 -24 -26 -38 -28 -19 -44
-44 -17 -29 9 5 9 4 0 -6 -10 -11 -16 -10 -36 3 -16 10 -28 12 -36 6 -7 -6 -8
-5 -2 2 5 6 4 20 -3 32 -23 45 -27 48 -41 37 -9 -8 -17 -3 -29 17 l-17 28 20
-24 c12 -13 21 -19 21 -14 0 20 -46 52 -67 47 -11 -3 -24 -1 -27 5 -10 15 58
25 83 12 12 -7 21 -9 21 -5 0 3 7 1 16 -7 13 -10 17 -10 25 2 7 12 9 12 10 -1
1 -8 1 -18 0 -22 0 -4 7 -4 16 -1 11 4 14 3 9 -5 -4 -7 -2 -12 4 -12 7 0 10
-7 7 -15 -8 -19 12 -30 26 -15 9 9 9 11 1 7 -15 -9 -24 24 -24 91 0 50 -6 60
-26 45 -5 -5 -2 -1 6 7 17 16 68 167 73 217 2 16 7 35 11 42 5 7 3 18 -4 24
-9 9 -11 8 -9 -3 1 -8 -3 -28 -9 -43 -7 -16 -9 -33 -6 -39 4 -7 2 -8 -5 -4 -9
6 -10 0 -6 -21 5 -21 4 -24 -4 -13 -6 9 -11 10 -11 3 0 -6 -3 -19 -7 -29 -5
-13 -3 -15 8 -10 8 4 6 1 -5 -8 -10 -8 -16 -22 -13 -31 4 -9 1 -15 -9 -15 -12
0 -13 -4 -4 -21 7 -11 10 -22 8 -23 -2 -1 -12 -8 -23 -16 -19 -14 -19 -14 -2
6 9 11 14 23 11 27 -3 3 -17 -7 -31 -24 -23 -27 -52 -42 -38 -19 12 19 -7 32
-20 13 -7 -10 -12 -20 -10 -23 8 -13 -151 -16 -240 -5 -27 3 -90 12 -140 20
-79 12 -208 23 -355 30 -81 4 -324 -16 -380 -31 -65 -18 -71 -19 -90 -27 -8
-3 -28 -8 -43 -11 -15 -4 -25 -11 -22 -16 3 -5 0 -12 -6 -16 -8 -5 -9 -3 -4 6
6 10 2 12 -16 6 -13 -4 -32 -9 -42 -11 -10 -2 -29 -13 -43 -24 -26 -21 -27
-21 -54 -1 -15 10 -33 26 -40 35 -7 8 -19 15 -26 15 -8 0 -16 12 -19 28 -3 15
-12 58 -21 97 -11 44 -18 125 -19 224 -2 84 -7 156 -12 160 -4 3 -8 13 -8 21
0 26 -25 190 -47 308 -18 96 -24 112 -40 112 -10 0 -20 -6 -22 -12z m2044
-248 c-6 -11 -13 -20 -16 -20 -2 0 0 9 6 20 6 11 13 20 16 20 2 0 0 -9 -6 -20z
m-23 -102 c-3 -8 -6 -5 -6 6 -1 11 2 17 5 13 3 -3 4 -12 1 -19z m-10 -80 c-3
-8 -6 -5 -6 6 -1 11 2 17 5 13 3 -3 4 -12 1 -19z m20 0 c-3 -8 -6 -5 -6 6 -1
11 2 17 5 13 3 -3 4 -12 1 -19z m12 -84 c0 11 3 17 6 14 4 -3 3 -18 -1 -34 -6
-25 -8 -26 -15 -9 -4 11 -7 36 -7 55 l1 35 7 -40 c4 -22 8 -31 9 -21z m-32 -6
c-3 -8 -6 -5 -6 6 -1 11 2 17 5 13 3 -3 4 -12 1 -19z m-13 -30 c-3 -4 -9 -8
-15 -8 -5 0 -9 4 -9 8 0 5 7 9 15 9 8 0 12 -4 9 -9z m32 -42 c-2 -6 -5 -2 -5
9 -1 17 -3 18 -12 5 -9 -12 -10 -12 -5 3 3 10 6 24 7 30 0 7 5 1 10 -12 5 -13
8 -29 5 -35z m-56 -71 c0 -5 -5 -3 -10 5 -5 8 -10 20 -10 25 0 6 5 3 10 -5 5
-8 10 -19 10 -25z m20 -66 c0 -14 -17 -10 -23 5 -4 10 -1 13 9 9 7 -3 14 -9
14 -14z m-45 -29 c16 -31 20 -54 6 -31 -8 12 -15 13 -35 3 l-25 -11 17 34 c9
19 18 35 19 35 1 0 9 -13 18 -30z m-1841 -56 c3 -8 2 -12 -4 -9 -6 3 -10 10
-10 16 0 14 7 11 14 -7z m1826 -10 c0 -8 -7 -14 -15 -14 -17 0 -18 2 -9 24 7
18 24 12 24 -10z m-142 -142 c4 -35 -5 -25 -12 12 -3 16 -2 25 1 22 4 -4 9
-19 11 -34z m-1570 -42 c1 -17 -5 -28 -19 -35 -30 -14 -63 -71 -48 -81 8 -5 9
-3 4 6 -6 9 -4 11 5 5 10 -6 12 -4 6 11 -6 15 -5 17 6 6 10 -10 8 -17 -13 -35
-28 -25 -55 -34 -43 -15 7 11 14 42 16 76 1 8 14 27 30 43 16 16 27 33 23 38
-3 6 3 9 13 8 12 0 19 -10 20 -27z m497 10 c-3 -5 -14 -10 -23 -10 -15 0 -15
2 -2 10 20 13 33 13 25 0z m60 0 c-3 -5 -11 -10 -16 -10 -6 0 -7 5 -4 10 3 6
11 10 16 10 6 0 7 -4 4 -10z m-241 -22 c-14 -24 -108 -118 -118 -118 -5 0 0
10 12 23 12 13 19 27 15 32 -5 4 -3 5 3 2 6 -3 26 12 44 34 33 37 60 54 44 27z
m71 -28 c-10 -11 -20 -18 -23 -15 -3 3 3 14 13 25 10 11 20 18 23 15 3 -3 -3
-14 -13 -25z m-196 3 c-44 -57 -63 -79 -78 -87 -13 -8 -14 -7 -4 6 7 8 14 26
15 40 1 15 7 24 14 21 7 -2 15 1 20 8 5 8 3 10 -6 4 -9 -5 -11 -4 -6 4 4 6 11
9 16 6 5 -3 11 -1 15 5 3 5 11 10 17 10 6 0 5 -7 -3 -17z m51 12 c0 -5 -8 -15
-63 -80 -23 -26 -25 -27 -20 -7 3 12 9 22 14 22 5 0 8 6 7 13 -2 6 2 11 8 10
6 -1 17 9 24 22 12 22 30 34 30 20z m-137 -30 c-24 -32 -43 -39 -43 -15 0 19
24 39 48 40 9 0 8 -7 -5 -25z m1717 -42 c0 -25 -3 -43 -7 -39 -9 9 -13 47 -6
69 8 30 13 19 13 -30z m-134 26 c3 -6 -2 -18 -11 -27 -10 -10 -15 -11 -11 -4
4 6 2 12 -3 12 -6 0 -11 -6 -11 -12 0 -9 -3 -8 -9 2 -14 21 -3 32 20 20 11 -7
19 -7 19 -1 0 5 -6 12 -12 14 -10 4 -10 6 -1 6 6 1 15 -4 19 -10z m-1662 -15
c4 -10 1 -14 -6 -12 -15 5 -23 28 -10 28 5 0 13 -7 16 -16z m-44 -38 c0 -3 -4
-8 -10 -11 -5 -3 -10 -1 -10 4 0 6 5 11 10 11 6 0 10 -2 10 -4z m32 -21 c-8
-16 -9 -16 -15 -1 -4 10 -3 15 3 11 6 -3 10 -1 10 6 0 7 3 10 6 6 3 -3 2 -13
-4 -22z m-59 -23 c-4 -18 -43 -49 -43 -35 0 6 40 53 46 53 1 0 0 -8 -3 -18z
m7 -44 c0 -7 -11 -31 -25 -53 l-24 -40 -1 31 c0 17 9 40 20 52 24 25 30 27 30
10z m1897 -130 c-3 -8 -6 -5 -6 6 -1 11 2 17 5 13 3 -3 4 -12 1 -19z m-1919
-894 c2 -10 10 -24 18 -30 7 -6 21 -27 29 -47 8 -20 19 -38 25 -42 13 -8 13
-25 -1 -25 -6 0 -13 9 -16 20 -3 11 -9 20 -14 20 -5 0 -9 5 -9 10 0 10 -7 20
-36 53 -19 22 -33 54 -27 61 11 11 28 0 31 -20z m-21 -216 c-3 -8 -6 -5 -6 6
-1 11 2 17 5 13 3 -3 4 -12 1 -19z m150 0 c-3 -8 -6 -5 -6 6 -1 11 2 17 5 13
3 -3 4 -12 1 -19z m-100 -30 c-3 -7 -5 -2 -5 12 0 14 2 19 5 13 2 -7 2 -19 0
-25z m93 -63 c0 -8 -4 -15 -8 -15 -5 0 -9 7 -9 15 0 8 4 15 9 15 4 0 8 -7 8
-15z m-306 -45 c5 0 17 -11 28 -25 11 -14 23 -25 28 -25 9 0 24 -13 96 -81 16
-16 34 -29 38 -29 4 0 17 -11 28 -25 11 -14 25 -25 33 -25 7 0 15 -9 18 -21 5
-17 2 -20 -16 -15 -12 3 -41 8 -64 12 -24 3 -40 10 -37 15 3 5 -7 9 -23 9 -58
0 -97 18 -113 52 -8 18 -15 35 -15 38 -1 3 -8 21 -17 40 -8 19 -18 53 -22 75
-8 39 -7 39 11 22 11 -9 23 -17 27 -17z m313 -37 c-3 -10 -5 -4 -5 12 0 17 2
24 5 18 2 -7 2 -21 0 -30z m-100 5 c-3 -8 -6 -5 -6 6 -1 11 2 17 5 13 3 -3 4
-12 1 -19z m1720 -27 c1 -13 -3 -18 -11 -15 -16 6 -30 -22 -27 -52 1 -14 -5
-23 -18 -27 -28 -7 -37 10 -10 18 12 4 18 13 15 20 -7 18 16 63 34 69 8 2 15
4 15 5 1 0 1 -8 2 -18z m-1670 -43 c-3 -7 -5 -2 -5 12 0 14 2 19 5 13 2 -7 2
-19 0 -25z m40 0 c-3 -8 -6 -5 -6 6 -1 11 2 17 5 13 3 -3 4 -12 1 -19z m63
-38 l-7 -55 -2 51 c0 28 2 54 6 57 10 11 10 6 3 -53z m-394 15 c12 -39 11 -40
-17 -25 -15 8 -17 15 -9 29 5 10 6 21 3 25 -3 3 -2 6 3 6 5 0 14 -16 20 -35z
m1958 11 c-6 -15 -24 -23 -24 -11 0 8 24 34 28 30 1 -1 0 -10 -4 -19z m-1517
-18 c-3 -8 -6 -5 -6 6 -1 11 2 17 5 13 3 -3 4 -12 1 -19z m-10 -60 c-3 -7 -5
-2 -5 12 0 14 2 19 5 13 2 -7 2 -19 0 -25z m0 -50 c-3 -7 -5 -2 -5 12 0 14 2
19 5 13 2 -7 2 -19 0 -25z m1361 -100 c-64 -78 -121 -139 -138 -148 -8 -4 -69
-18 -135 -29 -174 -31 -173 -30 -205 -58 -46 -38 -39 -2 8 45 56 56 433 240
495 242 14 0 9 -12 -25 -52z m-1573 -8 c47 -16 93 -36 302 -127 78 -34 191
-113 161 -113 -8 0 -18 4 -24 9 -5 6 -74 17 -154 27 -80 9 -162 21 -183 26
-47 11 -108 65 -153 135 -38 60 -43 79 -16 68 9 -4 40 -15 67 -25z m1835 -480
c0 -5 -4 -10 -10 -10 -5 0 -10 5 -10 10 0 6 5 10 10 10 6 0 10 -4 10 -10z
m-46 -107 c-4 -15 -20 -45 -35 -67 -32 -46 -47 -96 -30 -96 6 0 11 10 11 23 0
25 35 75 45 65 8 -8 -27 -168 -37 -168 -5 0 -8 -6 -8 -13 0 -18 -56 -134 -69
-141 -5 -4 -12 -20 -16 -37 -4 -17 -9 -28 -12 -25 -6 5 15 171 25 196 3 8 4
21 3 27 -5 30 40 151 65 174 14 13 32 39 39 57 17 39 28 42 19 5z m85 -179
c37 -18 85 -78 78 -96 -4 -8 -6 -6 -6 5 -1 9 -4 16 -8 15 -12 -2 -47 14 -55
26 -4 6 -10 7 -14 4 -9 -9 18 -36 32 -31 6 2 17 -3 24 -12 11 -13 8 -20 -19
-45 -49 -47 -53 -43 -65 60 -3 26 -2 37 3 26 6 -17 8 -17 14 -4 3 9 -1 24 -8
35 -14 17 -19 33 -12 33 2 0 18 -7 36 -16z m273 -114 c-18 -32 -36 -41 -25
-12 8 20 25 41 35 42 4 0 -1 -13 -10 -30z m-78 -13 c11 -8 17 -18 15 -23 -2
-5 -14 1 -26 14 -24 24 -17 30 11 9z m-325 -49 c-14 -81 -93 -249 -120 -256
-12 -3 -11 -2 0 6 8 6 11 17 8 26 -4 9 -1 15 6 13 7 -1 12 8 11 20 0 12 3 20
6 18 4 -2 12 15 19 38 16 54 39 104 51 112 6 3 10 16 10 29 0 19 7 36 15 36 1
0 -2 -19 -6 -42z m191 22 c-12 -22 -21 -26 -17 -7 2 10 17 26 25 27 1 0 -2 -9
-8 -20z m801 -83 c15 -12 29 -34 31 -50 4 -21 2 -25 -7 -17 -9 8 -15 8 -20 0
-4 -6 -18 -15 -31 -20 -13 -5 -29 -21 -34 -35 -5 -14 -16 -25 -23 -25 -18 0
-17 41 1 56 9 6 12 22 9 42 -3 18 -2 30 2 27 5 -2 14 7 21 20 16 30 18 30 51
2z m-3371 -114 c0 -7 11 -31 25 -53 46 -72 96 -173 92 -184 -3 -6 -9 1 -15 16
-6 14 -16 29 -22 33 -6 4 -21 28 -34 53 -13 26 -39 75 -59 109 -23 40 -31 63
-24 66 14 5 37 -20 37 -40z m-51 -13 c0 -10 -3 -8 -9 5 -12 27 -12 43 0 25 5
-8 9 -22 9 -30z m1 -54 c0 -12 -5 -7 -19 24 -11 24 -11 24 3 6 9 -11 16 -24
16 -30z m20 34 c0 -5 -5 -10 -11 -10 -5 0 -7 5 -4 10 3 6 8 10 11 10 2 0 4 -4
4 -10z m2787 -12 c-3 -8 -6 -5 -6 6 -1 11 2 17 5 13 3 -3 4 -12 1 -19z m-2768
-52 c7 -12 11 -34 9 -47 -4 -22 -6 -21 -21 13 -9 21 -17 42 -17 48 0 18 16 11
29 -14z m2694 9 c-3 -9 -8 -14 -10 -11 -3 3 -2 9 2 15 9 16 15 13 8 -4z m-7
-51 c-4 -9 -9 -15 -11 -12 -3 3 -3 13 1 22 4 9 9 15 11 12 3 -3 3 -13 -1 -22z
m84 -9 c0 -8 -2 -15 -4 -15 -2 0 -6 7 -10 15 -3 8 -1 15 4 15 6 0 10 -7 10
-15z m-2706 -68 c20 -35 47 -74 61 -87 14 -13 25 -28 25 -33 0 -6 12 -26 27
-46 19 -25 21 -32 8 -21 -28 21 -64 63 -65 76 0 6 -11 21 -24 34 -31 28 -87
140 -71 140 2 0 20 -28 39 -63z m2655 4 c-29 -40 -39 -30 -14 15 11 21 22 31
28 25 5 -5 0 -21 -14 -40z m901 20 c0 -4 -7 -8 -15 -8 -16 0 -20 9 -9 20 8 8
24 -1 24 -12z m-3787 2 c10 -17 19 -168 9 -158 -12 13 -32 95 -32 134 0 29 13
41 23 24z m2797 -27 c-12 -33 -60 -105 -60 -91 0 6 11 26 24 45 13 19 26 45
31 58 4 13 9 22 11 19 3 -2 0 -16 -6 -31z m372 -3 c-11 -16 -30 -37 -43 -48
-12 -11 -5 1 16 28 43 52 57 63 27 20z m668 21 c0 -14 -44 -44 -63 -44 -18 0
-17 3 9 25 27 24 54 33 54 19z m-900 -17 c0 -15 -64 -77 -79 -77 -6 0 -11 -5
-11 -10 0 -6 -9 -20 -19 -32 l-20 -20 6 20 c5 21 81 102 95 102 4 0 8 7 8 15
0 8 5 15 10 15 6 0 10 -6 10 -13z m50 -17 c0 -11 -4 -20 -8 -20 -13 0 -132
-116 -132 -128 0 -7 2 -12 6 -12 3 0 46 41 96 90 87 87 118 107 118 75 0 -8
-4 -15 -8 -15 -10 0 -57 -37 -106 -83 -23 -22 -56 -50 -73 -64 -18 -14 -33
-30 -33 -35 0 -12 -58 -68 -71 -68 -4 0 10 18 31 40 41 42 49 60 27 60 -13 0
-47 -34 -47 -48 0 -4 -9 -13 -20 -20 -20 -12 -21 -12 -5 17 8 17 29 41 46 53
17 13 37 34 44 48 7 14 36 43 64 65 27 22 50 46 51 53 0 21 20 13 20 -8z
m-2953 -22 c-3 -8 -6 -5 -6 6 -1 11 2 17 5 13 3 -3 4 -12 1 -19z m-95 -13 c4
-17 1 -25 -8 -25 -14 0 -19 31 -7 43 9 10 10 9 15 -18z m135 -87 c-2 -18 -4
-6 -4 27 0 33 2 48 4 33 2 -15 2 -42 0 -60z m3493 42 c-8 -5 -22 -9 -30 -9
-10 0 -8 3 5 9 27 12 43 12 25 0z m-3442 -75 c0 -16 -2 -15 -8 5 -4 14 -8 36
-8 50 0 22 1 22 8 -5 4 -16 8 -39 8 -50z m3976 6 c23 -16 53 -46 67 -65 13
-20 32 -36 43 -36 15 0 16 3 6 15 -17 20 -5 32 15 15 10 -8 27 -10 51 -5 67
12 121 -31 107 -86 -9 -37 -31 -56 -77 -68 -23 -6 -53 -19 -66 -31 -13 -11
-27 -20 -32 -20 -11 0 -84 -74 -92 -92 -3 -9 -9 -7 -20 6 -13 17 -16 17 -16 4
0 -9 5 -18 12 -20 10 -4 -39 -58 -52 -58 -3 0 -14 14 -23 30 -20 33 -37 39
-37 14 0 -9 9 -18 20 -21 11 -3 17 -9 14 -15 -3 -5 -12 -4 -20 3 -8 6 -14 8
-14 3 0 -5 -5 -1 -11 9 -5 9 -15 17 -20 17 -6 0 -3 -7 6 -16 15 -15 15 -18 1
-32 -12 -12 -20 -13 -39 -5 -21 10 -26 8 -37 -12 -7 -13 -18 -26 -25 -29 -19
-7 -12 39 9 59 29 29 57 93 35 79 -5 -3 -9 -11 -9 -18 0 -12 -33 -56 -42 -56
-2 0 -4 9 -5 20 -1 11 3 20 8 20 6 0 7 4 4 10 -4 6 1 7 11 3 11 -4 15 -2 12 7
-8 26 -29 22 -39 -9 -7 -19 -15 -28 -22 -24 -8 4 -8 1 0 -9 7 -8 9 -19 5 -23
-4 -5 -1 -5 6 -1 14 8 17 -10 2 -19 -5 -3 -15 6 -22 21 -10 22 -10 28 4 38 11
8 14 17 8 27 -8 12 -12 11 -24 -6 -9 -12 -15 -15 -16 -7 0 10 -5 10 -20 2 -11
-6 -20 -15 -20 -20 0 -5 -11 -21 -25 -36 -14 -15 -25 -21 -25 -14 0 6 11 25
25 42 30 35 31 44 7 50 -15 4 -18 1 -15 -16 2 -13 -6 -31 -20 -47 -14 -14 -32
-40 -41 -57 -9 -17 -25 -36 -37 -42 -20 -11 -20 -11 -3 22 9 18 25 45 36 60
11 16 15 29 8 33 -5 3 -10 -1 -10 -9 0 -8 -11 -23 -25 -34 -14 -11 -25 -26
-25 -33 0 -8 -9 -3 -21 11 -17 22 -19 23 -17 5 2 -11 10 -26 18 -32 22 -18 -5
-34 -37 -22 -20 7 -25 5 -33 -16 -5 -14 -15 -25 -22 -24 -10 0 -10 2 0 6 6 2
10 8 7 13 -3 4 2 13 10 20 8 7 15 19 15 26 0 8 4 14 8 14 11 0 36 51 33 65 -2
6 1 7 5 3 4 -4 13 -3 21 4 22 18 28 0 7 -24 l-19 -23 23 19 c12 11 20 26 18
33 -3 7 1 13 9 13 8 0 18 6 22 13 4 7 20 18 36 24 15 7 27 17 27 23 0 16 -20
12 -27 -6 -4 -11 -8 -12 -13 -4 -10 15 -50 -8 -51 -30 0 -10 -2 -11 -6 -2 -2
6 -13 12 -24 12 -11 0 -16 -5 -13 -13 3 -8 -2 -14 -11 -14 -32 0 -13 24 35 45
45 20 66 42 40 42 -5 0 -10 -4 -10 -10 0 -5 -8 -10 -18 -10 -10 0 -35 -9 -56
-20 -22 -10 -44 -17 -49 -13 -6 4 -8 0 -4 -10 4 -11 -1 -18 -14 -22 -10 -4
-17 -10 -14 -15 3 -5 -4 -7 -15 -5 -11 2 -20 0 -20 -5 0 -4 -25 -18 -55 -31
-30 -12 -55 -27 -55 -31 0 -5 -5 -6 -11 -3 -11 8 -7 29 7 31 25 4 54 17 54 25
0 5 6 9 13 9 6 0 32 18 56 40 25 22 48 40 53 40 13 0 102 61 111 77 4 7 22 19
40 27 18 8 47 28 65 45 38 36 46 38 39 12 -3 -14 0 -17 13 -14 10 3 21 0 25
-6 9 -16 38 16 31 35 -7 18 -26 9 -26 -12 0 -8 -4 -12 -10 -9 -5 3 -10 16 -10
28 1 16 14 28 49 45 47 23 59 44 39 69 -7 9 1 14 31 19 22 4 46 13 52 20 6 8
17 14 23 14 13 0 56 -53 56 -69 0 -13 -75 -71 -91 -71 -8 0 -32 -16 -53 -35
-22 -19 -52 -39 -68 -46 -15 -6 -28 -15 -28 -20 0 -14 53 1 76 22 11 11 25 19
32 19 6 0 15 7 19 15 5 8 24 23 43 33 73 39 110 64 110 77 0 22 21 29 26 9 3
-11 21 -27 40 -36 33 -17 34 -17 22 2 -7 10 -16 16 -20 14 -4 -3 -8 1 -8 8 0
13 -34 48 -47 48 -16 0 -51 43 -46 57 5 13 7 13 15 -1 5 -8 28 -29 52 -45z
m-599 25 c-11 -7 -31 -16 -45 -20 -19 -5 -16 -2 10 13 40 23 65 28 35 7z
m-3603 -79 c11 -23 31 -56 44 -73 26 -34 31 -58 12 -51 -7 2 -12 10 -10 16 1
6 -2 11 -8 11 -23 0 -7 -31 33 -62 23 -18 58 -48 77 -66 19 -19 49 -41 65 -49
17 -9 50 -38 75 -64 25 -27 53 -49 62 -49 10 0 24 -11 33 -23 8 -13 44 -44 80
-68 35 -24 65 -47 65 -52 0 -11 63 -66 76 -67 6 0 34 -24 61 -52 28 -29 69
-66 91 -83 23 -16 41 -35 42 -42 0 -6 6 -14 13 -17 6 -3 -1 -4 -17 0 -17 3
-36 13 -43 22 -11 16 -12 16 -13 1 0 -12 -14 -3 -43 27 -24 24 -46 41 -49 38
-3 -3 -21 10 -40 29 -19 19 -43 39 -54 45 -16 10 -17 13 -4 23 13 9 12 10 -3
5 -19 -6 -77 21 -77 36 0 4 -6 8 -14 8 -8 0 -18 9 -21 20 -3 11 -11 20 -16 20
-6 0 -66 55 -135 123 -68 67 -154 149 -189 182 -65 60 -95 110 -115 189 -6 22
-14 49 -17 60 -9 32 16 8 39 -37z m278 21 c0 -5 -4 -8 -10 -8 -5 0 -10 10 -10
23 0 18 2 19 10 7 5 -8 10 -18 10 -22z m2497 -3 c-9 -19 -13 -21 -15 -9 -3 13
12 33 25 34 0 0 -4 -11 -10 -25z m702 -6 c-11 -11 -23 -18 -27 -15 -3 4 3 13
14 21 28 22 37 18 13 -6z m-3516 -40 c10 -28 17 -61 17 -73 0 -17 2 -18 10 -6
8 11 10 6 8 -19 -2 -26 3 -38 20 -49 41 -27 352 -343 352 -358 0 -21 -12 -17
-40 13 -14 15 -19 23 -11 18 9 -5 12 -4 7 3 -4 6 -13 9 -21 5 -8 -3 -15 0 -15
6 0 6 6 11 13 11 8 0 7 4 -3 10 -22 14 -27 12 -25 -12 1 -13 -2 -26 -8 -29 -5
-4 -7 -22 -3 -43 5 -27 13 -37 32 -42 21 -5 44 -30 44 -47 0 -20 -294 87 -310
112 -3 5 -39 23 -81 40 -81 34 -147 87 -130 104 13 13 83 -7 104 -28 8 -8 21
-16 28 -17 8 -2 20 -9 27 -16 8 -7 17 -10 22 -7 5 3 10 -1 13 -7 2 -7 8 -9 13
-5 5 5 0 15 -11 22 -11 8 -24 18 -30 22 -19 15 -60 32 -101 42 -46 12 -90 53
-78 72 5 9 2 10 -10 6 -10 -4 -31 -7 -47 -7 -16 0 -29 -5 -29 -11 0 -5 6 -7
13 -3 9 5 9 4 1 -5 -6 -6 -18 -9 -27 -5 -19 7 -23 24 -7 24 6 0 5 6 -2 14 -7
8 -16 10 -19 5 -3 -6 -23 -2 -46 8 -38 17 -39 20 -30 48 14 43 26 55 56 55 31
0 63 33 55 55 -8 19 13 45 36 45 9 0 22 -11 28 -25 14 -30 43 -35 35 -5 -3 11
-1 20 5 20 17 0 20 -38 5 -59 -8 -12 -10 -21 -4 -21 5 0 18 -3 28 -6 15 -6 16
-4 6 7 -7 7 -13 19 -13 26 0 10 6 10 25 -3 36 -24 41 -11 8 20 -15 14 -23 26
-18 26 6 0 -3 9 -19 19 l-29 19 34 21 c19 12 44 24 56 27 12 3 24 12 27 20 10
26 23 14 39 -37z m3979 21 c-2 -17 -7 -29 -9 -26 -3 3 -26 -6 -52 -19 -25 -14
-52 -25 -58 -25 -7 0 -22 -9 -32 -19 -22 -22 -123 -74 -163 -84 -15 -4 -33
-13 -41 -21 -18 -18 -154 -76 -178 -76 -18 0 -67 -25 -79 -41 -14 -17 -180
-85 -180 -74 0 3 21 16 48 29 26 13 61 36 77 50 17 15 41 29 55 33 29 6 128
61 148 80 7 7 25 16 40 19 30 8 144 63 152 74 7 10 71 40 86 40 19 0 143 58
160 75 23 23 31 18 26 -15z m-525 -26 c-3 -3 -12 -4 -19 -1 -8 3 -5 6 6 6 11
1 17 -2 13 -5z m-711 -68 c-17 -19 -32 -33 -34 -31 -5 4 49 65 58 65 4 0 -7
-16 -24 -34z m149 24 c-3 -5 -12 -10 -18 -10 -7 0 -6 4 3 10 19 12 23 12 15 0z
m1662 -86 c2 -5 -6 -10 -17 -10 -20 0 -25 7 -13 20 9 8 26 3 30 -10z m53 -18
c0 -11 -19 -15 -25 -6 -3 5 1 10 9 10 9 0 16 -2 16 -4z m-120 -30 c0 -15 -48
-66 -62 -66 -10 0 -4 12 27 53 22 29 35 34 35 13z m60 -36 c0 -5 -2 -10 -4
-10 -3 0 -8 5 -11 10 -3 6 -1 10 4 10 6 0 11 -4 11 -10z m360 -76 c0 -8 -4
-12 -10 -9 -5 3 -10 10 -10 16 0 5 5 9 10 9 6 0 10 -7 10 -16z m-1263 -36 c-3
-8 -6 -5 -6 6 -1 11 2 17 5 13 3 -3 4 -12 1 -19z m1312 -12 c-3 -3 -11 5 -18
17 -13 21 -12 21 5 5 10 -10 16 -20 13 -22z m-1027 17 c-6 -2 -10 -9 -6 -14 3
-5 -1 -9 -10 -9 -8 0 -17 -13 -21 -29 -3 -16 -13 -32 -21 -35 -8 -3 -14 -4
-14 -2 0 3 -3 11 -6 20 -5 12 0 16 17 16 12 0 19 3 16 7 -9 8 32 53 47 52 6 0
5 -3 -2 -6z m958 -23 c0 -14 -14 -12 -28 2 -19 19 -14 30 8 18 11 -6 20 -15
20 -20z m-55 10 c3 -6 -1 -7 -9 -4 -18 7 -21 14 -7 14 6 0 13 -4 16 -10z
m-1178 -35 c-12 -26 -27 -33 -27 -14 0 9 26 37 37 39 0 0 -4 -11 -10 -25z
m291 18 c-1 -5 4 -19 11 -33 l14 -25 -22 19 c-11 11 -21 14 -21 9 0 -6 -7 -13
-14 -16 -11 -4 -13 -1 -9 11 8 22 47 55 41 35z m-328 -36 c0 -7 -4 -6 -11 3
-8 12 -9 10 -4 -7 4 -16 0 -25 -15 -33 -11 -6 -20 -16 -19 -23 0 -9 2 -9 6 1
2 6 11 12 18 12 8 0 18 8 24 17 5 10 12 15 15 12 3 -3 -3 -19 -13 -35 -15 -24
-25 -30 -49 -28 -17 1 -35 5 -41 9 -6 3 -11 1 -11 -4 0 -15 -27 -14 -33 2 -2
6 -8 0 -12 -15 -4 -16 -11 -28 -16 -28 -14 0 -10 22 8 42 18 20 48 25 38 6 -4
-7 0 -5 8 5 8 9 20 17 26 17 15 0 34 18 50 48 12 22 31 22 31 -1z m-479 4 c4
7 11 10 16 6 4 -5 1 -12 -7 -17 -22 -14 -30 -12 -29 8 0 12 2 13 6 3 4 -11 7
-11 14 0z m699 -2 c0 -15 -26 -39 -34 -32 -3 4 -6 0 -6 -7 0 -7 -2 -11 -5 -8
-9 8 6 38 16 32 5 -3 9 2 9 10 0 9 5 16 10 16 6 0 10 -5 10 -11z m-390 -13 c0
-3 -4 -8 -10 -11 -5 -3 -10 -1 -10 4 0 6 5 11 10 11 6 0 10 -2 10 -4z m1452
-4 c5 -11 112 -62 131 -62 10 0 17 -4 17 -10 0 -5 -2 -10 -4 -10 -12 0 -74 25
-86 35 -8 7 -27 15 -41 19 -15 3 -29 13 -33 21 -5 15 9 22 16 7z m-1469 -57
c-3 -9 -8 -14 -10 -11 -3 3 -2 9 2 15 9 16 15 13 8 -4z m-190 -31 c-30 -28
-129 -82 -118 -65 3 6 21 19 38 28 18 9 42 26 54 39 12 13 29 24 38 24 12 0 8
-7 -12 -26z m1410 15 c12 -7 24 -15 27 -18 3 -3 22 -15 43 -25 20 -11 36 -21
34 -23 -2 -2 -39 6 -83 17 -78 19 -114 24 -114 15 0 -12 24 -55 31 -55 11 0
84 -144 105 -207 18 -52 55 -245 48 -252 -2 -2 -10 1 -17 7 -8 7 -17 9 -20 5
-11 -10 -8 -23 4 -23 24 0 36 -30 42 -111 l7 -85 -35 -17 c-41 -20 -120 -24
-109 -5 5 7 3 8 -6 3 -14 -9 -90 14 -90 27 0 15 21 51 57 94 46 57 41 67 -7
13 -22 -24 -40 -48 -40 -52 0 -5 -4 -6 -9 -2 -5 3 -12 1 -15 -4 -4 -5 -2 -12
4 -16 6 -4 8 -11 4 -16 -4 -6 -11 -6 -20 1 -11 10 -11 15 2 35 14 22 14 24 -6
35 -21 11 -21 12 -4 31 14 15 14 18 3 14 -9 -3 -24 3 -34 15 -16 18 -17 23 -5
30 9 6 10 10 3 10 -21 0 -26 -21 -9 -39 9 -10 13 -21 9 -26 -5 -4 -2 -5 5 -1
14 8 15 5 6 -18 -3 -9 -11 -13 -16 -10 -6 4 -13 2 -17 -4 -4 -6 -20 0 -43 17
-37 28 -38 28 -18 46 11 10 20 22 20 27 0 5 11 21 25 36 24 26 33 52 18 52 -5
0 -24 -24 -43 -53 -42 -62 -50 -69 -67 -55 -14 11 -7 32 7 23 5 -3 22 14 37
37 15 24 34 49 41 57 7 7 10 16 7 19 -3 4 -9 1 -13 -5 -20 -32 -97 -113 -107
-113 -7 0 -20 11 -29 25 -9 14 -21 23 -26 20 -6 -4 -10 1 -10 9 0 19 16 21 23
4 2 -7 8 -10 12 -5 5 4 3 13 -3 19 -17 17 -15 25 8 31 13 3 20 0 20 -10 0 -12
3 -11 17 3 16 15 17 15 25 -2 6 -14 7 -11 3 8 -4 20 0 33 16 45 30 26 42 50
27 59 -7 4 -10 4 -6 -1 4 -4 -4 -19 -19 -33 -15 -14 -28 -31 -29 -39 -3 -21
-9 -24 -28 -17 -15 6 -15 7 1 20 10 7 15 14 11 14 -8 0 8 21 55 72 15 17 26
32 24 35 -9 8 -37 -10 -43 -29 -8 -28 -64 -89 -75 -82 -5 3 -2 12 6 20 8 9 14
25 14 37 -2 21 -2 21 -6 -1 -3 -13 -15 -27 -29 -32 -29 -11 -32 -30 -4 -30 25
0 26 -14 3 -32 -10 -7 -23 -22 -29 -33 -14 -24 -34 -31 -34 -11 0 9 5 16 11
16 5 0 8 4 5 9 -3 5 1 14 9 21 8 7 15 9 15 6 0 -4 5 -4 11 0 8 4 7 9 -2 15
-15 9 -47 -15 -58 -43 -5 -14 -9 -15 -31 -3 -15 9 -19 14 -10 15 8 0 21 14 29
30 10 24 18 30 34 25 12 -2 16 -2 10 1 -10 4 -9 9 2 21 14 13 21 43 11 43 -17
0 -34 -14 -30 -24 3 -7 -7 -18 -21 -26 -14 -7 -25 -19 -25 -25 0 -7 -8 -20
-19 -29 -17 -15 -20 -15 -34 -2 -9 9 -27 20 -41 26 -14 5 -26 15 -26 21 0 6 7
8 16 5 22 -8 54 11 48 29 -6 16 51 77 61 66 3 -3 3 3 -1 13 -7 17 -8 17 -19
-4 -8 -15 -14 -19 -19 -11 -4 7 -2 18 4 26 7 8 9 15 4 15 -5 0 4 11 20 25 16
14 35 25 42 25 19 0 86 38 103 58 13 16 13 16 8 0 -8 -24 3 -30 22 -11 12 13
13 17 3 21 -8 2 8 17 37 33 53 30 77 37 65 17 -4 -7 -3 -8 5 -4 6 4 9 10 7 14
-2 4 13 16 34 26 21 10 52 31 70 47 34 31 75 38 113 18z m-1333 -44 c-7 -8
-20 -15 -29 -14 -11 0 -10 3 7 11 12 6 22 18 23 27 0 11 2 12 6 3 3 -7 -1 -19
-7 -27z m100 20 c0 -8 -4 -15 -10 -15 -5 0 -7 7 -4 15 4 8 8 15 10 15 2 0 4
-7 4 -15z m-2930 -66 c0 -11 -3 -11 -24 -3 -9 3 -16 12 -16 20 0 7 -6 11 -14
8 -16 -6 -30 11 -21 26 7 11 75 -36 75 -51z m4550 41 c8 -5 11 -10 5 -10 -5 0
-17 5 -25 10 -8 5 -10 10 -5 10 6 0 17 -5 25 -10z m-5435 -18 c-3 -3 -11 0
-18 7 -9 10 -8 11 6 5 10 -3 15 -9 12 -12z m-384 -50 c13 -24 14 -32 2 -60
-18 -45 -1 -92 50 -141 20 -19 37 -40 37 -47 0 -6 15 -22 34 -35 19 -13 86
-63 150 -112 141 -106 174 -127 204 -127 20 0 133 -63 173 -97 9 -7 42 -24 75
-37 32 -13 86 -36 118 -52 54 -25 57 -29 35 -35 -13 -4 -69 -28 -124 -55 -55
-26 -102 -48 -105 -48 -3 -1 -21 -11 -41 -24 -20 -12 -46 -22 -59 -22 -12 0
-85 36 -163 80 -77 44 -145 81 -150 83 -6 2 -2 16 8 31 l19 28 -45 42 c-24 22
-66 59 -94 80 -27 22 -88 77 -135 123 -93 90 -89 90 -110 6 -6 -24 -15 -43
-19 -43 -11 0 -131 128 -131 139 0 5 24 15 53 21 65 16 75 24 83 66 7 40 -26
89 -68 99 l-27 6 33 52 c60 92 79 107 133 107 42 0 50 -4 64 -28z m1339 -15
c25 -23 65 -57 90 -74 25 -18 42 -33 38 -33 -12 0 -92 59 -122 90 -29 29 -50
35 -27 6 8 -10 9 -16 1 -21 -5 -3 -10 1 -10 9 0 9 -4 16 -9 16 -5 0 -11 11
-13 25 -3 14 -2 25 1 25 3 0 26 -19 51 -43z m3266 -108 c-13 -10 -27 -32 -31
-49 -5 -21 -11 -27 -23 -23 -14 5 -15 3 -5 -7 11 -11 17 -10 38 10 14 13 25
28 25 34 1 6 9 21 20 34 17 21 27 23 92 21 40 -1 95 -4 122 -7 48 -5 48 -5 22
-19 -15 -8 -26 -22 -26 -34 0 -11 -4 -17 -10 -14 -5 3 -7 0 -4 -9 3 -8 11 -13
18 -10 7 3 18 -1 25 -9 9 -11 8 -17 -4 -27 -11 -9 -12 -16 -5 -26 9 -10 6 -11
-12 -7 -19 4 -20 3 -8 -7 13 -10 13 -11 0 -7 -8 2 -16 13 -18 25 -2 12 -13 27
-25 34 -20 10 -21 10 -8 -6 11 -14 12 -21 1 -40 -11 -22 -14 -23 -38 -11 -14
8 -28 17 -31 22 -12 16 -71 44 -81 38 -11 -7 -1 -37 17 -48 7 -5 10 -13 7 -19
-4 -6 -2 -8 4 -4 17 10 44 -35 30 -51 -6 -7 -15 -13 -20 -13 -15 0 -38 27 -30
36 4 5 -1 2 -10 -5 -23 -17 -23 -3 -1 21 9 10 13 21 9 25 -4 4 -15 -3 -25 -16
-17 -22 -41 -22 -41 0 0 6 4 8 9 5 4 -3 6 7 3 22 l-6 27 -10 -28 c-8 -21 -14
-26 -30 -21 -28 9 -34 16 -18 21 6 3 12 16 12 30 0 21 -2 24 -15 13 -8 -7 -15
-19 -15 -26 0 -8 -7 -14 -15 -14 -23 0 -18 26 10 54 14 14 25 35 25 48 0 16 3
19 9 10 7 -11 9 -11 14 1 8 21 -2 28 -24 17 -10 -6 -19 -22 -21 -37 -2 -16 -7
-28 -13 -29 -21 -2 -45 -17 -39 -25 3 -5 1 -9 -4 -9 -21 0 -18 14 9 41 25 24
28 32 19 49 -9 16 -8 18 5 14 8 -4 15 -1 15 4 0 12 18 16 83 19 l48 2 -25 -20z
m-166 2 c0 -5 -10 -11 -22 -13 -17 -2 -22 -9 -21 -25 1 -11 -4 -23 -11 -26
-11 -5 -12 1 -5 25 5 18 14 35 21 40 18 11 38 10 38 -1z m-110 -5 c0 -2 -8
-10 -17 -17 -16 -13 -17 -12 -4 4 13 16 21 21 21 13z m140 -30 c0 -7 -6 -13
-14 -13 -8 0 -11 8 -8 19 5 19 22 15 22 -6z m410 -10 c0 -3 -4 -8 -10 -11 -5
-3 -10 -1 -10 4 0 6 5 11 10 11 6 0 10 -2 10 -4z m-779 -33 c-12 -20 -14 -14
-5 12 4 9 9 14 11 11 3 -2 0 -13 -6 -23z m-2359 -16 c21 -7 41 -16 44 -20 4
-4 16 -7 26 -7 10 0 18 -4 18 -10 0 -5 16 -12 36 -16 24 -4 32 -9 23 -15 -7
-4 -28 0 -50 11 -20 11 -39 16 -43 13 -3 -4 -6 -2 -6 4 0 6 -20 16 -45 23 -25
7 -48 17 -51 21 -7 12 4 11 48 -4z m2518 -12 c0 -8 -2 -15 -4 -15 -2 0 -6 7
-10 15 -3 8 -1 15 4 15 6 0 10 -7 10 -15z m-153 -27 c-3 -7 -5 -2 -5 12 0 14
2 19 5 13 2 -7 2 -19 0 -25z m-87 7 c0 -8 -4 -15 -10 -15 -5 0 -10 7 -10 15 0
8 5 15 10 15 6 0 10 -7 10 -15z m37 -7 c-3 -8 -6 -5 -6 6 -1 11 2 17 5 13 3
-3 4 -12 1 -19z m86 5 c-2 -10 -16 -31 -30 -48 -18 -21 -21 -22 -9 -5 9 14 21
35 26 48 11 26 20 29 13 5z m-182 -20 c-12 -20 -14 -14 -5 12 4 9 9 14 11 11
3 -2 0 -13 -6 -23z m245 -31 c-16 -30 -60 -53 -49 -25 3 8 11 12 17 10 7 -3
18 8 25 25 7 16 15 27 18 25 2 -3 -2 -18 -11 -35z m524 -12 c6 -11 8 -20 6
-20 -3 0 -10 9 -16 20 -6 11 -8 20 -6 20 3 0 10 -9 16 -20z m-380 -41 c0 -6
-4 -7 -10 -4 -5 3 -10 11 -10 16 0 6 5 7 10 4 6 -3 10 -11 10 -16z m395 -9 c7
0 16 6 18 13 3 7 6 6 6 -5 1 -25 -18 -32 -45 -17 -18 9 -21 15 -12 20 7 5 15
4 16 -1 2 -6 10 -10 17 -10z m-585 0 c0 -5 -4 -10 -10 -10 -5 0 -10 5 -10 10
0 6 5 10 10 10 6 0 10 -4 10 -10z m250 -4 c0 -3 -4 -8 -10 -11 -5 -3 -10 -1
-10 4 0 6 5 11 10 11 6 0 10 -2 10 -4z m384 -30 c-3 -9 -10 -16 -15 -16 -14 0
-11 28 4 33 16 6 19 3 11 -17z m-2714 -2 c0 -2 -7 -4 -15 -4 -8 0 -15 4 -15
10 0 5 7 7 15 4 8 -4 15 -8 15 -10z m2245 -3 c-3 -6 -11 -11 -16 -11 -5 0 -4
6 3 14 14 16 24 13 13 -3z m-2161 -82 c20 -40 35 -74 32 -76 -2 -3 7 -29 20
-59 28 -64 28 -65 9 -58 -14 6 -31 41 -27 57 1 4 -3 7 -9 7 -6 0 -9 6 -7 12 3
7 -13 49 -34 94 -41 88 -43 94 -29 94 5 0 25 -32 45 -71z m2186 31 c0 -5 -4
-10 -10 -10 -5 0 -10 5 -10 10 0 6 5 10 10 10 6 0 10 -4 10 -10z m-2126 -65
c16 -36 26 -69 23 -72 -4 -3 -9 3 -13 13 -4 10 -17 43 -30 72 -12 28 -20 52
-16 52 4 0 20 -29 36 -65z m-1284 31 c0 -11 -19 -15 -25 -6 -3 5 1 10 9 10 9
0 16 -2 16 -4z m1362 -92 c16 -43 38 -98 48 -121 11 -24 17 -43 13 -43 -13 0
-43 34 -43 49 0 13 -20 63 -77 200 -5 11 -2 12 12 4 9 -6 31 -46 47 -89z
m-510 68 c5 -12 85 -72 96 -72 5 0 12 -7 16 -15 3 -8 10 -15 16 -15 6 0 26
-11 44 -25 18 -14 37 -25 43 -25 5 0 18 -9 28 -20 10 -11 16 -20 12 -20 -3 0
-54 25 -113 55 -60 30 -112 55 -116 55 -4 0 -28 13 -53 29 -38 24 -43 30 -30
41 8 6 19 9 25 5 5 -3 10 -1 10 4 0 13 17 15 22 3z m78 -8 c34 -23 110 -96
110 -106 0 -4 -4 -8 -10 -8 -5 0 -10 6 -10 13 0 8 -11 20 -25 27 -14 7 -25 17
-25 22 0 5 -20 18 -45 29 -24 11 -47 24 -50 29 -10 16 28 11 55 -6z m-1837
-71 c94 -73 101 -81 50 -53 -44 24 -144 109 -130 110 4 0 40 -25 80 -57z
m2326 -12 c11 -32 21 -65 21 -75 0 -9 5 -16 10 -16 6 0 10 -11 10 -25 0 -14 5
-25 12 -25 6 0 8 -3 5 -6 -13 -14 -36 19 -48 69 -6 29 -18 61 -24 72 -19 29
-28 65 -17 65 5 0 19 -26 31 -59z m-624 38 c-4 -6 2 -13 14 -16 12 -3 21 -9
21 -14 0 -5 9 -9 19 -9 10 0 21 -7 25 -15 3 -8 12 -15 21 -15 8 0 75 -30 148
-68 130 -65 197 -110 197 -131 0 -6 6 -8 13 -5 8 3 14 -2 15 -11 1 -8 3 -22 4
-30 1 -8 5 -12 9 -9 12 7 79 -39 79 -53 0 -7 4 -13 9 -13 5 0 12 -8 14 -17 3
-10 5 3 6 30 1 31 -3 47 -11 47 -10 0 -10 2 -1 8 6 4 11 16 10 27 -1 12 3 19
11 17 8 -1 12 3 10 10 -3 7 -15 14 -29 16 -19 2 -21 1 -9 -7 13 -9 13 -11 -2
-11 -10 0 -18 7 -18 15 0 8 -3 15 -7 15 -11 0 -53 63 -53 78 0 10 5 10 20 2
11 -6 18 -15 15 -20 -3 -6 1 -7 10 -4 9 4 26 2 38 -5 12 -6 40 -17 62 -24 31
-11 41 -20 43 -39 4 -30 -23 -46 -33 -20 -5 13 -8 14 -15 3 -11 -18 13 -43 34
-35 11 4 16 1 16 -11 0 -12 -5 -15 -20 -10 -11 4 -20 2 -20 -4 0 -6 6 -11 14
-11 21 0 24 -17 16 -120 -4 -52 -5 -101 -2 -109 3 -9 1 -12 -6 -7 -6 3 -13 -2
-17 -13 -8 -25 -84 -74 -115 -74 -14 0 -45 9 -70 20 -25 11 -61 26 -80 33 -82
32 -254 125 -375 204 -182 118 -205 135 -247 191 -44 57 -47 91 -8 87 17 -1
21 1 11 7 -14 9 -9 13 73 67 47 31 78 44 126 54 19 4 36 8 38 9 2 0 0 -4 -3
-10z m3525 2 c0 -6 -4 -13 -10 -16 -5 -3 -10 1 -10 9 0 9 5 16 10 16 6 0 10
-4 10 -9z m-2850 -52 c0 -6 -4 -7 -10 -4 -5 3 -10 11 -10 16 0 6 5 7 10 4 6
-3 10 -11 10 -16z m-130 -45 c23 -52 24 -58 10 -49 -10 6 -40 70 -40 86 0 21
12 6 30 -37z m149 -29 l0 -20 -9 20 c-5 11 -9 29 -9 40 l0 20 9 -20 c5 -11 9
-29 9 -40z m126 -45 c3 -5 1 -10 -4 -10 -6 0 -11 5 -11 10 0 6 2 10 4 10 3 0
8 -4 11 -10z m12 -126 c2 -13 1 -15 -4 -4 -3 8 -11 19 -17 23 -7 6 -6 7 4 4 8
-2 16 -12 17 -23z m-2231 -501 c-10 -10 -19 5 -10 18 6 11 8 11 12 0 2 -7 1
-15 -2 -18z"/>
<path d="M5390 1910 c-6 -11 -17 -20 -24 -20 -8 0 -16 -7 -20 -15 -9 -25 9
-17 43 20 17 19 27 35 22 35 -6 0 -15 -9 -21 -20z"/>
<path d="M5642 1828 c-12 -12 -17 -38 -6 -38 10 0 34 28 34 39 0 14 -13 14
-28 -1z"/>
<path d="M5715 1828 c-4 -10 -4 -26 0 -35 8 -17 8 -17 12 0 3 9 3 25 0 35 -4
16 -4 16 -12 0z"/>
<path d="M5350 1779 c0 -5 5 -7 10 -4 6 3 10 8 10 11 0 2 -4 4 -10 4 -5 0 -10
-5 -10 -11z"/>
<path d="M5545 1709 c-4 -6 -5 -12 -2 -15 2 -3 7 2 10 11 7 17 1 20 -8 4z"/>
<path d="M1310 2010 c0 -11 6 -20 14 -20 9 0 12 7 9 20 -3 11 -9 20 -14 20 -5
0 -9 -9 -9 -20z"/>
<path d="M1460 1940 c0 -23 12 -36 52 -58 24 -14 40 -17 44 -11 8 14 1 20 -25
22 -15 1 -21 7 -18 18 3 11 -1 16 -12 14 -9 -1 -21 5 -28 14 -11 14 -12 14
-13 1z"/>
<path d="M1570 1855 c0 -8 4 -15 10 -15 5 0 7 7 4 15 -4 8 -8 15 -10 15 -2 0
-4 -7 -4 -15z"/>
<path d="M1300 1850 c0 -5 9 -10 19 -10 11 0 28 -3 38 -6 10 -3 7 2 -7 10 -29
18 -50 20 -50 6z"/>
<path d="M1576 1805 c28 -29 34 -30 34 -12 0 8 -11 19 -25 25 -36 17 -37 15
-9 -13z"/>
<path d="M1413 1807 c3 -15 68 -48 80 -40 11 7 3 14 -18 17 -9 1 -20 7 -23 12
-11 16 -42 25 -39 11z"/>
<path d="M1637 1804 c6 -15 23 -19 23 -5 0 5 -7 11 -14 14 -10 4 -13 1 -9 -9z"/>
<path d="M1665 1780 c-8 -14 0 -22 57 -54 36 -21 80 -28 75 -11 -2 5 -14 11
-26 11 -12 1 -35 14 -52 30 -16 15 -29 24 -29 18 0 -5 -4 -3 -9 5 -7 10 -10
11 -16 1z"/>
<path d="M1506 1761 c-4 -6 1 -14 11 -17 10 -3 26 -10 36 -15 10 -6 17 -6 17
0 0 5 -10 13 -22 17 -13 4 -26 11 -29 16 -4 6 -9 6 -13 -1z"/>
<path d="M1600 1750 c0 -5 5 -10 11 -10 5 0 7 5 4 10 -3 6 -8 10 -11 10 -2 0
-4 -4 -4 -10z"/>
<path d="M1590 1720 c0 -5 5 -10 11 -10 6 0 17 -7 25 -15 9 -8 21 -15 27 -14
8 0 8 2 -1 6 -6 2 -10 9 -6 14 3 5 -2 9 -10 9 -9 0 -16 5 -16 10 0 6 -7 10
-15 10 -8 0 -15 -4 -15 -10z"/>
<path d="M1747 1676 c-4 -11 -1 -13 11 -9 13 5 14 3 5 -7 -16 -17 -5 -40 19
-40 26 0 21 38 -8 57 -19 12 -22 12 -27 -1z"/>
<path d="M1620 1652 c0 -9 44 -32 60 -32 6 0 10 5 10 12 0 6 -3 9 -6 5 -4 -3
-13 0 -21 8 -16 16 -43 20 -43 7z"/>
<path d="M1712 1648 c5 -15 28 -23 28 -10 0 5 -7 13 -16 16 -10 4 -14 1 -12
-6z"/>
<path d="M1818 1643 c7 -3 16 -2 19 1 4 3 -2 6 -13 5 -11 0 -14 -3 -6 -6z"/>
<path d="M1700 1619 c0 -7 3 -9 6 -6 4 4 14 -1 23 -11 29 -31 116 -72 109 -51
-2 6 -6 9 -9 7 -11 -6 -40 32 -33 43 4 8 3 9 -5 5 -6 -4 -17 -3 -24 2 -21 16
-67 24 -67 11z"/>
<path d="M5925 1459 c-4 -6 -5 -12 -2 -15 2 -3 7 2 10 11 7 17 1 20 -8 4z"/>
<path d="M6058 1444 c-32 -17 -36 -32 -11 -41 10 -4 23 2 35 16 32 41 23 51
-24 25z"/>
<path d="M5791 1390 c-13 -11 -19 -20 -13 -20 5 0 20 9 33 20 13 10 20 19 14
19 -5 0 -21 -9 -34 -19z"/>
<path d="M5867 1393 c-4 -3 -7 -11 -7 -17 0 -6 5 -5 12 2 6 6 9 14 7 17 -3 3
-9 2 -12 -2z"/>
<path d="M5830 1350 c0 -11 4 -20 9 -20 11 0 22 26 14 34 -12 12 -23 5 -23
-14z"/>
<path d="M5760 1349 c0 -5 -4 -7 -10 -4 -5 3 -10 -2 -10 -13 0 -10 -13 -28
-30 -40 -16 -13 -30 -30 -30 -40 0 -9 -9 -23 -20 -30 -12 -7 -18 -17 -15 -21
3 -5 -1 -11 -7 -14 -7 -2 -10 -8 -6 -12 10 -11 39 15 31 28 -3 5 -2 7 4 4 9
-6 43 26 43 41 0 5 13 21 28 38 29 29 48 74 31 74 -5 0 -9 -5 -9 -11z"/>
<path d="M5700 1335 c0 -8 5 -15 10 -15 6 0 10 7 10 15 0 8 -4 15 -10 15 -5 0
-10 -7 -10 -15z"/>
<path d="M5884 1315 c-18 -14 -18 -14 4 -8 12 3 22 9 22 14 0 12 -3 11 -26 -6z"/>
<path d="M5793 1301 c-12 -11 -24 -17 -27 -14 -3 4 -6 2 -6 -4 0 -14 29 -37
37 -29 3 3 0 6 -8 6 -8 0 -10 3 -4 8 6 4 19 17 29 30 23 27 8 29 -21 3z"/>
<path d="M5965 1310 c-3 -5 -1 -10 4 -10 6 0 11 5 11 10 0 6 -2 10 -4 10 -3 0
-8 -4 -11 -10z"/>
<path d="M5850 1275 c-11 -13 -10 -14 4 -9 9 3 16 10 16 15 0 13 -6 11 -20 -6z"/>
<path d="M5910 1179 c0 -5 5 -7 10 -4 6 3 10 8 10 11 0 2 -4 4 -10 4 -5 0 -10
-5 -10 -11z"/>
<path d="M5818 1099 c-3 -8 -2 -23 2 -33 5 -15 8 -16 12 -5 3 8 2 23 -2 33 -5
15 -8 16 -12 5z"/>
<path d="M6115 1040 c-3 -5 -1 -10 4 -10 6 0 11 5 11 10 0 6 -2 10 -4 10 -3 0
-8 -4 -11 -10z"/>
<path d="M6160 1029 c0 -5 5 -7 10 -4 6 3 10 8 10 11 0 2 -4 4 -10 4 -5 0 -10
-5 -10 -11z"/>
<path d="M5951 1018 c-1 -9 -7 -19 -13 -21 -8 -3 -6 -6 5 -6 9 -1 17 -6 17
-13 0 -6 2 -9 5 -7 2 3 0 18 -4 35 -5 16 -10 22 -10 12z"/>
<path d="M6070 990 c0 -5 7 -7 15 -4 8 4 15 8 15 10 0 2 -7 4 -15 4 -8 0 -15
-4 -15 -10z"/>
<path d="M6055 950 c3 -5 8 -10 11 -10 2 0 4 5 4 10 0 6 -5 10 -11 10 -5 0 -7
-4 -4 -10z"/>
<path d="M6136 934 c-9 -22 3 -32 14 -14 12 19 12 30 1 30 -5 0 -12 -7 -15
-16z"/>
<path d="M6230 915 c0 -8 7 -15 15 -15 8 0 15 7 15 15 0 8 -7 15 -15 15 -8 0
-15 -7 -15 -15z"/>
<path d="M6100 891 c0 -6 4 -13 10 -16 6 -3 7 1 4 9 -7 18 -14 21 -14 7z"/>
<path d="M6172 883 c4 -21 33 -25 33 -3 0 8 -8 16 -18 18 -14 3 -18 -1 -15
-15z"/>
<path d="M710 1262 c-32 -22 -40 -32 -40 -58 0 -22 26 -48 195 -195 55 -48
129 -117 165 -153 64 -65 93 -79 118 -54 32 32 14 58 -178 251 -104 104 -190
194 -190 198 0 7 -33 30 -42 28 -2 0 -14 -8 -28 -17z"/>
<path d="M5444 1370 c-13 -5 -24 -21 -27 -40 -4 -17 -11 -29 -15 -26 -9 6 -42
-29 -42 -44 0 -6 5 -10 10 -10 6 0 10 3 10 8 0 4 16 24 35 44 19 20 35 41 35
47 0 5 8 15 18 20 21 12 5 13 -24 1z"/>
<path d="M5485 1350 c-3 -5 -3 -10 1 -10 4 0 0 -6 -10 -13 -17 -12 -17 -14 -3
-20 16 -6 37 18 37 42 0 14 -17 14 -25 1z"/>
<path d="M5440 1284 c0 -14 3 -14 15 -4 8 7 15 14 15 16 0 2 -7 4 -15 4 -8 0
-15 -7 -15 -16z"/>
<path d="M5574 1273 c13 -13 20 -15 23 -5 3 6 10 9 16 5 7 -3 8 -2 4 2 -4 5
-20 11 -35 13 -26 3 -26 3 -8 -15z"/>
<path d="M5525 1244 c0 -13 3 -24 8 -24 4 0 7 9 7 19 0 11 -3 22 -7 24 -5 3
-8 -6 -8 -19z"/>
<path d="M3096 625 c4 -8 11 -15 16 -15 6 0 5 6 -2 15 -7 8 -14 15 -16 15 -2
0 -1 -7 2 -15z"/>
<path d="M4211 6539 c-6 -18 -11 -44 -10 -58 0 -17 6 -6 15 28 16 60 13 80 -5
30z"/>
<path d="M2222 6380 c0 -14 2 -19 5 -12 2 6 2 18 0 25 -3 6 -5 1 -5 -13z"/>
<path d="M4170 6207 c-7 -61 -14 -123 -15 -137 -1 -14 -7 -38 -13 -53 -17 -41
-16 -62 2 -45 8 7 13 14 11 16 -1 2 3 23 11 48 7 24 11 51 7 59 -3 9 0 21 6
29 7 8 9 32 6 57 -4 34 -3 38 4 19 8 -19 9 -11 9 37 -2 102 -13 90 -28 -30z"/>
<path d="M4271 6198 c-9 -43 -9 -64 -2 -71 8 -8 11 3 11 39 0 35 3 45 10 34 7
-11 8 -5 4 20 -4 19 -8 36 -8 37 -1 1 -8 -25 -15 -59z"/>
<path d="M4252 6088 c0 -20 -3 -42 -8 -49 -4 -8 -3 -10 4 -5 7 4 12 15 12 24
0 15 2 15 10 2 14 -22 12 -7 -4 31 l-14 33 0 -36z"/>
<path d="M4248 6013 c-16 -19 -20 -53 -6 -53 4 0 9 5 9 10 3 20 4 25 13 38 13
21 1 24 -16 5z"/>
<path d="M4112 5915 c4 -4 3 -14 -3 -22 -7 -8 -8 -13 -1 -13 15 0 23 28 9 36
-7 4 -9 4 -5 -1z"/>
<path d="M4405 5829 c-4 -6 -5 -12 -2 -15 2 -3 7 2 10 11 7 17 1 20 -8 4z"/>
<path d="M4055 5791 c-8 -17 -11 -32 -6 -35 8 -5 16 12 26 52 5 21 -4 13 -20
-17z"/>
<path d="M2052 5630 c0 -14 2 -19 5 -12 2 6 2 18 0 25 -3 6 -5 1 -5 -13z"/>
<path d="M4404 5536 c0 -30 4 -50 7 -44 7 11 4 87 -4 94 -2 3 -4 -20 -3 -50z"/>
<path d="M4406 5425 c-3 -9 0 -15 9 -15 9 0 12 6 9 15 -4 8 -7 15 -9 15 -2 0
-5 -7 -9 -15z"/>
<path d="M2019 4958 c0 -22 -1 -22 -9 -3 -6 14 -8 6 -7 -27 3 -68 24 -70 26
-2 0 30 -1 54 -4 54 -3 0 -5 -10 -6 -22z"/>
<path d="M1990 4760 c0 -19 3 -21 12 -12 9 9 9 15 0 24 -9 9 -12 7 -12 -12z"/>
<path d="M4417 4165 c-3 -27 -5 -61 -6 -74 0 -13 -7 -39 -16 -58 -13 -27 -18
-76 -22 -212 -4 -154 -3 -179 12 -196 15 -19 16 -16 11 57 -3 49 -1 80 6 84 7
4 8 29 4 65 -3 32 -1 82 5 111 18 92 28 216 20 245 -7 25 -8 23 -14 -22z"/>
<path d="M4900 2841 c0 -5 5 -13 10 -16 6 -3 10 -2 10 4 0 5 -4 13 -10 16 -5
3 -10 2 -10 -4z"/>
<path d="M4725 2800 c-3 -6 1 -7 9 -4 18 7 21 14 7 14 -6 0 -13 -4 -16 -10z"/>
<path d="M5166 2755 c4 -8 10 -12 15 -9 11 6 2 24 -11 24 -5 0 -7 -7 -4 -15z"/>
</g>
</svg>
